<?xml version="1.0" encoding="utf-8"?>
<!-- Generator: Adobe Illustrator 24.1.0, SVG Export Plug-In . SVG Version: 6.00 Build 0)  -->
<svg version="1.1" id="Calque_1" xmlns="http://www.w3.org/2000/svg" xmlns:xlink="http://www.w3.org/1999/xlink" x="0px" y="0px"
	 viewBox="0 0 1022 767" style="enable-background:new 0 0 1022 767;" xml:space="preserve">
<g>
	<g>
		<path d="M418.8,28.4c6,3.6,8.3,8.7,8.2,15.8c-0.3,22.2,0.1,44.4-0.3,66.6c-0.1,3.8-1.4,8.5-3.9,10.9c-2.2,2.1-7.1,2.7-10.4,2
			c-5.2-1.2-7.2-5.8-7.2-11c0-15,0-29.9,0-44.9c0-7.9,0.4-15.9-0.1-23.8c-0.4-7.1,2-12.3,8.3-15.6C415.2,28.4,417,28.4,418.8,28.4z"
			/>
		<path d="M416.3,593.2c-25.4,0-50.8,0-76.2,0c-14.1,0-16.1-2.8-16.8-16.6c-0.7-14.2-1.9-28.5-4.5-42.4
			c-3.7-19.3-13.8-35.2-27.8-49.4c-42.8-43.3-60.2-95.7-50.6-155.9c12.4-77.8,73.7-137.3,151.2-148.2
			c94-13.3,183.1,49.7,200.5,142.9c11.3,60.5-4.6,114.4-47.9,157.9c-26.4,26.5-34,57.6-35,92.4c-0.1,2.3,0.1,4.5-0.1,6.8
			c-0.6,9-4.2,12.5-13.4,12.5C469.4,593.2,442.8,593.1,416.3,593.2z M345.8,570.5c0.1,0.1,0.3,0.2,0.5,0.2
			c45.8,0.1,91.6,0.3,137.4,0.1c1.5,0,3.9-2.7,4.2-4.3c1-6.3,0.9-12.7,1.8-18.9c3.6-26,11.3-50.4,29-70.5
			c8.2-9.3,17.7-17.8,24.8-27.9c41.4-58.9,39.5-132.5-4.2-189.8c-42.5-55.8-124.5-75.4-188.2-45.9c-58.2,26.9-97,87.8-91.8,154.8
			c3,38.9,17.8,72.5,45.8,99.5c18.3,17.7,29.8,38.6,34.7,63.2C342.4,544,343.8,557.3,345.8,570.5z"/>
		<path d="M415.3,659.5c-23.8,0-47.6,0.2-71.4-0.1c-12.4-0.1-23-9-25.6-20.6c-2.7-12.3,3.1-24.7,14.4-30.1c2.6-1.2,5.6-2.4,8.4-2.4
			c49.8-0.2,99.7-0.8,149.5,0.2c18.9,0.4,29.5,22.1,20.6,38.3c-5.5,10.1-14.6,14.6-25.8,14.6C462,659.6,438.7,659.6,415.3,659.5
			C415.3,659.6,415.3,659.5,415.3,659.5z M415.4,626.8c-8.4,0-16.8,0-25.1,0c-14.7,0-29.4-0.2-44.1,0.2c-2.3,0.1-4.4,3.1-6.6,4.8
			c2.1,1.9,4,4,6.4,5.5c1.1,0.7,3.1,0.2,4.7,0.2c43.7,0,87.4,0,131.1,0c1.6,0,3.5,0.5,4.7-0.2c2.2-1.4,3.9-3.5,5.8-5.3
			c-2-1.7-3.9-3.7-6.1-5c-1.2-0.7-3.1-0.1-4.7-0.1C459.3,626.8,437.3,626.8,415.4,626.8z"/>
		<path d="M416.1,724.7c-16.8,0-33.5,0.2-50.3-0.1c-13.3-0.2-23.5-8.9-26.2-21.4c-2.5-11.5,3.1-23.5,13.8-29.1
			c2.4-1.2,5.1-2.5,7.6-2.6c36.7-0.2,73.3-0.7,110,0.1c12.2,0.3,20.3,10.7,21.9,23.2c1.4,11.2-5.1,22.9-16,27.3
			c-4.1,1.6-8.8,2.3-13.2,2.4C447.8,724.9,431.9,724.8,416.1,724.7C416.1,724.8,416.1,724.7,416.1,724.7z M416.8,692
			c-16.3,0-32.6,0-49,0c-3.7,0-7.2,0.6-7.2,5.1c0,4.4,3.5,5.3,7.2,5.3c0.5,0,0.9,0,1.4,0c31.3,0,62.6,0,93.8,0
			c4.1,0,8.4-0.3,8.2-5.7c-0.2-4.9-4.4-4.8-8.2-4.8C447.6,692,432.2,692,416.8,692z"/>
		<path d="M245,76.8c3.8,2.8,7.6,4.4,9.5,7.3c13.2,20,26.1,40.3,38.9,60.6c4.1,6.5,2.5,13.2-3.2,16.6c-5.5,3.3-11.2,1.6-15.5-5.1
			c-12.8-19.8-25.6-39.5-37.8-59.6c-2-3.3-2.2-8.8-1-12.5C236.7,81.2,241.3,79.6,245,76.8z"/>
		<path d="M706,207.8c-1.3,1.6-3.2,5.8-6.5,7.6c-21.1,11.8-42.5,23.2-63.9,34.6c-6,3.2-12.1,1.5-14.9-3.4c-3-5.3-1.5-12,4.4-15.3
			c21.4-11.8,42.9-23.5,64.5-34.8C697.9,192.4,705.9,197,706,207.8z"/>
		<path d="M135.6,193.9c4.4,1.7,7,2.4,9.4,3.7c19.9,10.7,39.7,21.6,59.6,32.4c1,0.5,2,1.1,2.9,1.8c4.9,3.5,6.6,10.2,3.5,15
			c-3.4,5.2-8.4,6.1-13.7,3.8c-4.8-2.1-9.2-4.8-13.8-7.3c-16.9-9.2-33.8-18.4-50.6-27.6c-5.1-2.8-8.5-7.2-6-12.7
			C128.6,199.2,132.8,196.7,135.6,193.9z"/>
		<path d="M604,91c-1.8,4-2.7,6.5-4.1,8.7c-13.1,19.8-26.3,39.6-39.5,59.4c-4.3,6.4-9.6,8-14.9,4.7c-5.5-3.4-6.8-9.6-2.6-16
			c13.3-20.2,26.8-40.4,40.3-60.5c2.9-4.3,7.2-7,12.2-4.5C598.7,84.6,601.1,88.2,604,91z"/>
		<path d="M554.8,357.2c0,0.7,0,1.4,0,2c0.1,9.3-3.5,14.5-10.3,14.7c-6.9,0.2-11-4.8-11.3-14c-1.4-33.9-14.6-62.2-40-84.7
			c-20.5-18.2-44.9-27.6-72.3-29.1c-10.6-0.6-15.7-4.1-15.6-11.1c0.1-7.3,5.9-11,16.6-10.5C494.4,227.7,553.3,286.6,554.8,357.2z"/>
	</g>
	<g>
		<g>
			<path d="M465.4,424.7c1.8,1,3.3,1.9,4.8,2.9c0.5,0.4,1.1,0.9,1.3,1.5c2.2,5,1.8,9.8-1.1,14.5c-0.3,0.4-0.8,0.8-1.3,0.9
				c-8.9,1.4-17.8,2.7-26.6,4c-3.4,0.5-6.8,1-10.3,1.6c1.2,3,1.4,5.9,0.3,9.1c1.9-0.7,3.6-1.3,5.3-1.9c14-5.2,27.9-10.3,41.9-15.5
				c0.7-0.3,1.1-0.7,1.4-1.4c1.1-3,0.7-5.7-1.3-8.2c-0.4-0.4-0.7-0.6-1.2-0.4c-1,0.4-2.1,0.8-3.2,1.1c-0.3,0.1-0.8-0.3-1.2-0.4
				c0.2-0.4,0.3-0.9,0.7-1.1c1.3-0.6,2.7-1.1,4.1-1.5c0.4-0.1,1,0.1,1.4,0.4c2.9,2.8,3.7,6.1,2.6,9.9c-0.5,1.7-1.4,2.6-3.1,3.2
				c-15.9,5.8-31.9,11.8-47.8,17.6c-0.6,0.2-1.4,0.3-2,0.2c-16.1-4.1-32.2-8.3-48.3-12.5c-0.2,0-0.4,0-0.5-0.1
				c-0.2-0.3-0.6-0.7-0.5-1c0.1-0.3,0.6-0.6,0.9-0.6c0.7,0,1.3,0.3,2.1,0.5c1.4-3,1.4-5.9,0-8.9c-0.1-0.2-0.5-0.4-0.8-0.5
				c-0.6-0.2-1.2-0.3-1.7-0.5c-0.3-0.1-0.6-0.5-0.6-0.7c0-0.3,0.3-0.7,0.5-0.8c2.5-0.8,5-1.5,7.5-2.2c0.2-0.1,0.8,0.3,0.9,0.6
				c0.1,0.3-0.2,0.8-0.5,0.9c-0.9,0.4-1.9,0.6-2.9,0.9c-0.4,0.1-0.8,0.2-1.2,0.6c6.5,1.7,12.9,3.3,19.4,5c0-0.1,0.1-0.2,0.1-0.2
				c-0.3-0.2-0.5-0.4-0.8-0.6c-6.2-3.9-12.3-7.8-18.5-11.6c-0.2-0.1-0.6-0.2-0.7-0.5c-0.2-0.4-0.3-0.8-0.4-1.2
				c0.4-0.1,1-0.3,1.3-0.1c1.7,1,3.4,2.1,5.1,3.1c4.5,2.8,9,5.7,13.5,8.5c0.3,0.2,0.5,0.3,0.7,0.4c1-2.6,2-5.1,3.1-7.8
				c-0.6-0.4-1.4-1-2.2-1.5c-0.5-0.3-0.9-0.7-0.6-1.3c0.4-0.6,0.9-0.4,1.4-0.1c4.4,2.9,8.8,5.8,13.3,8.7c0.5,0.3,0.9,0.7,0.5,1.3
				c-0.4,0.6-0.9,0.5-1.4,0.1c-0.8-0.5-1.6-1.1-2.5-1.6c-1.4,1.5-1.7,3.4-2.2,5.3c-0.6,2.1,0.1,3.2,1.9,4.1c1.6,0.7,3,1.8,4.5,2.8
				c1-1.6,1.5-3.3,1.7-5.1c0.3-2.5,0.1-4.9-0.8-7.2c-0.2-0.5-0.6-1-1-1.2c-3-2-6.1-3.9-9.2-5.8c-0.2-0.1-0.6-0.3-0.7-0.5
				c-0.2-0.3-0.3-0.8-0.2-1c0.2-0.2,0.7-0.4,1-0.3c0.5,0.1,0.8,0.5,1.3,0.7c2.9,1.8,5.7,3.6,8.6,5.4c0.4,0.3,1.1,0.4,1.5,0.3
				c11.9-1.8,23.8-3.6,35.6-5.4c2.8-0.4,5.6-0.8,8.5-1.3c0.2,0,0.4-0.1,0.9-0.2c-1.7-1-3.2-1.9-4.7-2.8c-0.3-0.1-0.7-0.1-1,0
				c-9.6,1.9-19.2,3.9-28.9,5.8c-1.2,0.2-2.5,0-3.7-0.3c-12.1-2.5-24.1-5.1-36.2-7.6c-0.3-0.1-0.6-0.1-1-0.1
				c-0.6,1.6-1.2,3.1-1.8,4.6c-0.1,0.2-0.1,0.5-0.3,0.7c-0.3,0.2-0.7,0.4-1.1,0.5c-0.1-0.4-0.5-0.8-0.4-1.1c0.6-1.7,1.2-3.3,1.9-5.1
				c-2.2-0.5-4.4-1-6.6-1.4c-3.4-0.7-3.5-0.7-4.6-4.1c-1.5-4.6-1.1-9,1-13.3c0.2-0.4,0.7-0.8,1.1-0.9c13.5-2.5,27.1-5.1,40.7-7.5
				c1.7-0.3,3.5,0.2,5.3,0.5c9.9,1.5,19.8,3,29.6,4.5c7.6,1.2,15.1,2.3,22.7,3.5c1.3,0.2,1.5,0.7,0.7,1.7c-3.2,4.6-3.2,9.5,0.1,14.2
				c0.7,1,0.5,1.5-0.7,1.7c-2.4,0.5-4.8,1-7.3,1.5C470.5,423.6,468.1,424.1,465.4,424.7z M386.4,403.9c0,0.1,0,0.1,0,0.2
				c0.3,0.1,0.5,0.2,0.8,0.2c14.8,3.1,29.6,6.2,44.3,9.3c0.4,0.1,0.8,0.1,1.2,0c11.6-2.3,23.3-4.7,34.9-7c2.4-0.5,4.8-1,7.3-1.5
				c-0.2-0.2-0.4-0.3-0.6-0.3c-15.6-2.4-31.3-4.7-46.9-7.1c-1.7-0.3-3.5-0.7-5.1-0.4c-8.8,1.5-17.5,3.2-26.3,4.8
				C392.8,402.6,389.6,403.3,386.4,403.9z M478.5,406.1c-0.5,0.1-0.9,0.1-1.2,0.2c-2.9,0.6-5.7,1.2-8.6,1.7
				c-11.8,2.4-23.6,4.7-35.4,7.1c-0.3,0.1-0.7,0.3-0.8,0.5c-2.2,4.6-2.1,9.2,0.1,13.9c15.5-3.1,30.8-6.2,46.3-9.4
				C476.2,415.5,476,411,478.5,406.1z M409.6,410.7c-0.1-0.1-0.2-0.1-0.3-0.1c-7.2-1.5-14.4-3-21.6-4.6c-0.7-0.1-0.9,0.2-1.1,0.7
				c-1.7,4.1-1.7,8.2,0,12.3c0.4,0.9,0.8,1.3,1.8,1.4c5.6,1.1,11.1,2.3,16.6,3.5c1.5,0.3,2.9,0.6,4.5,0.9
				C407.5,419.9,407.6,415.3,409.6,410.7z M430.5,459.5c1.4-3,1.4-5.9,0.2-8.8c-0.1-0.2-0.6-0.5-0.9-0.4c-2.7,0.4-5.3,0.8-8,1.1
				c-0.7,0.1-1.5-0.1-2-0.4c-2.2-1.3-4.3-2.7-6.3-3.9c-1.1,1.5-2,3-3.1,4.4c-0.2,0.3-0.8,0.6-1.1,0.4c-0.3-0.1-0.6-0.7-0.6-1.1
				c-0.2-1.3-0.4-2.6-0.5-4.1c-1.4,0.9-2.7,1.7-4,2.4c-0.4,0.2-0.9,0.1-1.3,0.1c0-0.4-0.1-0.9,0-1.3c0.5-1.5,1-3,1.5-4.6
				c-6.2-1.6-12.3-3.1-18.2-4.6c0.2,1.6,0.5,3.1,0.4,4.5c-0.1,1.5-0.5,2.9-0.7,4.5C400.5,451.7,415.5,455.6,430.5,459.5z
				 M430.8,415.2c-0.4-0.1-0.6-0.2-0.8-0.2c-4.4-0.9-8.8-1.8-13.2-2.8c-1-0.2-1.3,0-1.7,0.9c-1.6,4.4-1,8.6,0.8,12.8
				c0.1,0.3,0.6,0.5,1,0.6c3.2,0.7,6.5,1.4,9.7,2.1c1.3,0.3,2.5,0.5,4,0.8C428.7,424.5,428.8,419.8,430.8,415.2z M440.7,446.9
				c0.2,0,0.4,0,0.5,0c4-0.6,8-1.2,12.1-1.9c0.4-0.1,0.8-0.4,0.9-0.8c1.9-3.8,2.1-7.6,0.9-11.6c-0.2-0.7-0.6-0.8-1.2-0.7
				c-2.7,0.4-5.4,0.8-8,1.2c-1.5,0.2-3,0.5-4.6,0.7C442.7,438.4,442.5,442.6,440.7,446.9z M422.5,449.7c3.3-0.5,6.4-1,9.5-1.5
				c0.2,0,0.5-0.3,0.6-0.6c1.9-3.9,2.2-7.8,0.8-11.9c-0.2-0.6-0.4-0.7-1-0.5c-1.2,0.2-2.3,0.3-3.5,0.5c-1.9,0.3-3.9,0.6-5.9,0.9
				C424.6,441,424.5,445.3,422.5,449.7z M462,443.8c2.3-0.4,4.4-0.7,6.5-1c0.3-0.1,0.7-0.3,0.9-0.6c2.2-3.9,2.5-7.9,0.8-12
				c-0.1-0.2-0.6-0.5-0.8-0.5c-2.3,0.3-4.5,0.7-6.9,1C464.1,435.1,463.9,439.4,462,443.8z M410.1,449.2c1.2-1.7,2-3.3,2.3-5
				c0.5-2.7,0.7-5.5,2.7-7.7c-1.8-1.2-3.6-2.4-5.4-3.6c-2.9,4.1-2.9,9.1-4.6,13.8c1.2-0.7,2.1-1.3,3-1.9c0.9-0.5,1.5-0.3,1.6,0.8
				C409.7,446.7,409.9,447.8,410.1,449.2z M455.9,444.7c1.2-0.2,2.2-0.2,3.2-0.5c0.5-0.1,1-0.5,1.2-0.9c1.4-2.6,1.9-5.5,1.5-8.4
				c-0.2-1.4-0.6-2.7-0.9-4c-1.6,0.2-3,0.5-4.5,0.7C458,436,457.8,440.3,455.9,444.7z M434.6,447.9c1.3-0.2,2.4-0.3,3.5-0.5
				c0.3,0,0.6-0.3,0.7-0.5c2-3.9,2.3-8,0.8-12.1c-0.1-0.2-0.4-0.5-0.6-0.5c-1.3,0.1-2.6,0.4-3.9,0.6
				C436.5,441.4,436.5,441.4,434.6,447.9z M385.1,405.5c-0.9-0.2-1.6-0.3-2.3-0.5c-0.7-0.2-0.9,0-1.2,0.6c-1.8,4.4-1.7,8.7,0.2,12.9
				c0.1,0.3,0.4,0.6,0.7,0.6c0.7,0.2,1.5,0.3,2.3,0.5C383,414.9,383.1,410.2,385.1,405.5z M414,425.6c-1.8-4.7-2.2-9.3-0.1-14
				c-0.9-0.2-1.8-0.4-2.7-0.6c-0.2,0.3-0.3,0.6-0.5,1c-1.6,3.8-1.6,7.6-0.2,11.5C411.4,425.4,411.7,425.6,414,425.6z"/>
			<path d="M480.8,465.8c0.9-0.4,1.6-0.7,2.4-1c0.6-0.2,1.2-0.4,1.5,0.3c0.3,0.8-0.3,1-0.8,1.3c-7.7,3.4-15.4,6.7-23.2,10.1
				c-0.4,0.2-0.9,0.4-1.5,0.7c0.8,0.8,1.4,1.6,2.2,2.2c2.9,2.3,5.9,4.5,8.8,6.7c0.2,0.1,0.4,0.2,0.5,0.4c0.2,0.3,0.4,0.8,0.3,1.1
				c0,0.2-0.6,0.4-0.9,0.4c-2-0.2-4.1-0.5-6.1-0.7c-0.6-0.1-1.2-0.1-2-0.2c0.5,1.7,1,3.2,1.5,4.7c0.1,0.4,0.3,0.8,0.3,1.2
				c0,0.3-0.1,0.7-0.3,0.9c-0.2,0.1-0.7,0.1-0.9,0c-4.5-3.5-8.9-7-13.4-10.5c-0.5-0.4-0.8-0.5-1.3-0.2c-5.1,2.4-10.3,4.7-15.4,7.2
				c-0.9,0.4-1.7,0.5-2.7,0.1c-14.5-5.3-28.9-10.6-43.4-15.9c-0.9-0.3-1.4-0.8-1.8-1.6c-3.1-6.8-2.9-13.5,0.3-20.2
				c0.4-0.9,1.1-0.8,1.8-0.6c10,2.8,20.1,5.6,30.1,8.4c4.7,1.3,9.4,2.6,14.2,3.9c0.5,0.1,1,0.1,1.5-0.1
				c15.6-5.7,31.3-11.5,46.9-17.2c0.1,0,0.2-0.1,0.5-0.3c-0.6-0.2-1.1-0.3-1.4-0.6c-0.3-0.2-0.6-0.8-0.5-1c0.2-0.3,0.7-0.6,1-0.5
				c1.3,0.3,2.5,0.8,3.8,1.2c0.3,0.1,0.6,0.5,0.6,0.8c0,0.2-0.3,0.5-0.6,0.7c-0.2,0.1-0.4,0.2-0.7,0.3c-1.9,0.3-2.5,1.5-2.9,3.2
				C477.9,456.2,478.4,461,480.8,465.8z M477.9,449.5c-0.4,0.1-0.6,0.2-0.8,0.3c-14.7,5.4-29.3,10.7-44,16.1
				c-0.4,0.2-0.9,0.5-1.1,0.9c-3.3,6.2-3.8,12.6-1.7,19.3c0.3,0.9,0.7,1.7,1,2.6c5.5-2.5,10.8-4.9,16.1-7.3
				c-0.1-1.3-0.1-2.6-0.2-3.8c-0.3-3.2-1.1-6.2-3.3-8.6c-0.6-0.6-1.1-1-1.9-0.5c-0.9,0.4-1.9,0.7-2.8,1.1c-1.1,0.4-2.2,0.8-3.4,1.2
				c-0.3,0.1-0.7-0.3-1.1-0.4c0.2-0.4,0.3-0.8,0.5-1.1c0.1-0.1,0.4-0.2,0.6-0.2c6.8-2.5,13.6-5,20.4-7.5c2.2-0.8,4.3-1.6,6.5-2.3
				c0.3-0.1,0.8,0.2,1.2,0.4c-0.2,0.4-0.3,0.8-0.6,1.1c-0.3,0.2-0.7,0.3-1.1,0.4c-2.4,0.9-4.8,1.8-7.4,2.8c3.2,3.2,4,7.2,4.3,11.6
				c6.8-3,13.4-5.9,20.1-8.8C476.6,461,476.2,455.4,477.9,449.5z M416,462c-0.3-0.1-0.6-0.2-0.9-0.3c-6.5-1.8-13.1-3.6-19.6-5.5
				c-0.7-0.2-1,0.1-1.2,0.6c-2.5,5.8-2.7,11.7-0.6,17.7c0.2,0.4,0.6,0.9,1.1,1.1c6.3,2.4,12.7,4.7,19.1,7c0.3,0.1,0.5,0.2,0.9,0.3
				C412.3,475.7,412.7,468.8,416,462z M417.8,462.5c-0.1,0.1-0.2,0.1-0.2,0.2c-0.1,0.1-0.1,0.2-0.2,0.4c-3.1,6.5-3.4,13.2-0.7,19.9
				c0.2,0.5,0.7,0.9,1.2,1.1c3.4,1.3,6.9,2.6,10.4,3.8c0.3,0.1,0.6,0.2,1.1,0.3c-2.9-7.7-2.5-15,1.2-22.2
				C426.2,464.8,422,463.6,417.8,462.5z M444.9,467.4c0.6,0.8,1.1,1.4,1.6,2.1c1.8,2.8,2.4,5.9,2.4,9.1c0,1.6,0.5,2.9,1.8,3.9
				c3.3,2.6,6.6,5.2,10,7.8c0.2,0.1,0.4,0.2,0.8,0.5c-0.5-1.5-0.9-2.8-1.3-4.1c-0.4-1.2-0.1-1.6,1.2-1.5c1.9,0.2,3.7,0.5,5.6,0.7
				c-0.4-0.5-0.8-0.8-1.2-1.2c-2.3-1.9-4.6-3.8-6.9-5.7c-0.9-0.8-1.4-1.9-1.4-3.3c0-1.2-0.2-2.5-0.4-3.7c-0.5-2.7-1.4-5.1-3.4-7
				c-0.3-0.2-0.8-0.5-1-0.4C450.1,465.4,447.5,466.4,444.9,467.4z M391.9,474.6c-1-3.3-1.4-6.5-1.2-9.7c0.2-3.2,1-6.3,2.4-9.4
				c-2.3-0.7-4.6-1.3-6.8-1.9c-0.1,0.1-0.2,0.1-0.2,0.2c-2.8,6-2.8,12.1,0,18.2c0.1,0.3,0.4,0.5,0.6,0.6
				C388.3,473.3,390,473.9,391.9,474.6z"/>
			<path d="M400.2,431.9c0,0.8-0.7,1.2-1.2,0.8c-2.1-1.3-4.1-2.6-6.1-4c-0.2-0.2-0.2-0.7-0.2-1.1c0.4-0.1,0.9-0.3,1.2-0.2
				c2,1.2,4,2.6,5.9,3.9C400,431.5,400.1,431.8,400.2,431.9z"/>
			<path d="M439.3,420.4c-0.2-0.2-0.7-0.5-0.7-0.7c0-0.4,0.5-0.9,0.8-0.9c3.3-0.7,6.6-1.3,9.9-1.9c7.8-1.4,15.5-2.9,23.3-4.3
				c0.7-0.1,1.7-0.6,1.9,0.5c0.2,1.1-0.9,1-1.6,1.2c-11,2-22.1,4.1-33.1,6.1C439.8,420.3,439.7,420.3,439.3,420.4z"/>
			<path d="M465.1,419.4c-0.2-0.2-0.7-0.5-0.7-0.8c0-0.3,0.4-0.9,0.7-0.9c2.8-0.6,5.5-1.1,8.3-1.5c0.3-0.1,0.7,0.4,1.1,0.6
				c-0.2,0.3-0.4,0.9-0.7,0.9C470.9,418.3,468.1,418.8,465.1,419.4z"/>
			<path d="M399.5,446.9c-1.9-0.5-3.6-0.9-5.3-1.4c-0.2-0.1-0.5-0.6-0.4-0.9c0.1-0.3,0.6-0.6,0.8-0.6c1.7,0.4,3.4,0.8,5.1,1.2
				c0.2,0.1,0.5,0.6,0.5,0.9C400.2,446.4,399.7,446.7,399.5,446.9z"/>
			<path d="M390.9,444.7c-0.9-0.2-1.6-0.3-2.2-0.6c-0.3-0.1-0.6-0.7-0.5-0.9c0.1-0.3,0.6-0.7,0.9-0.7c0.7,0,1.4,0.2,2,0.5
				c0.3,0.1,0.6,0.6,0.5,1C391.5,444.3,391.1,444.5,390.9,444.7z"/>
			<path d="M461.2,466.9c-0.2-0.2-0.6-0.4-0.7-0.7c-0.1-0.2,0.2-0.6,0.3-0.9c0.1-0.1,0.4-0.2,0.6-0.3c3.5-1.3,7-2.6,10.6-3.9
				c0.6-0.2,1.2-0.5,1.5,0.3c0.3,0.8-0.3,1-0.9,1.3c-3.6,1.3-7.1,2.6-10.7,3.9C461.8,466.7,461.6,466.8,461.2,466.9z"/>
			<path d="M444.5,477.6c-0.2,0.2-0.4,0.5-0.7,0.6c-3.2,1.2-6.4,2.4-9.6,3.5c-0.3,0.1-0.8-0.2-1.1-0.4c0.2-0.4,0.3-1,0.6-1.1
				c3.2-1.2,6.4-2.4,9.6-3.6C443.8,476.5,444.3,476.7,444.5,477.6z"/>
			<path d="M440.6,475.9c-0.2-0.2-0.7-0.4-0.7-0.7c-0.1-0.3,0.1-0.8,0.4-0.9c1-0.5,2.1-0.9,3.2-1.2c0.3-0.1,0.8,0.2,0.9,0.4
				c0.1,0.2-0.1,0.8-0.3,0.9C443,475,441.9,475.4,440.6,475.9z"/>
		</g>
		<g>
			<path d="M361.2,301.4c2.1-0.6,4.2-1.5,6.4-1.9c9.1-1.5,18.5,3.5,22.2,11.5c4.2,9,2.2,19.1-5.1,25.4c-8.8,7.7-22.3,6.9-29.8-1.8
				c-7.9-9.1-7-22.5,1.9-30.3c0.4-0.3,0.7-0.7,1.1-1C359,302.7,360.1,302,361.2,301.4z"/>
			<path d="M338.9,381.6c-2.1-2-4.6-1.1-7-0.8c-0.3,0-0.7,0.4-0.8,0.7c-0.4,1-0.6,2.1-1,3.3c3.2,0.2,6.3,0.4,9.4,0.5
				c0.3,0,0.7-0.5,0.8-0.9c2.8-5.4,5.6-10.7,8.3-16.1c0.4-0.7,0.8-1,1.6-1c5.5,0.3,11,0.5,16.5,0.8c0.3,0,0.7,0.1,1.1,0.1
				c-0.2,0.3-0.3,0.4-0.5,0.6c-2.5,2.5-3.2,6.3-1.8,9.4c1.7,3.5,4.9,5.3,8.6,4.9c1.9-0.2,3.8-0.5,5.8-0.8c-0.4,0.7-0.7,1.2-1.1,2
				c5.5-0.3,10.9-0.6,16.5-0.9c0-1,0-2,0-3.2c0.6-0.1,1.2-0.2,1.9-0.3c2.5-0.3,5-0.7,7.5-1c4.6-0.7,7.7-4.4,7.4-9
				c-0.5-8.2-1-16.4-1.6-24.6c-0.3-4.9-4.2-8.3-8.9-8c-4.7,0.3-8.2,4.2-7.9,9.1c0.3,5.2,0.6,10.4,1,15.6c0,0.4,0,0.8,0.1,1.3
				c-0.6,0.1-1,0.1-1.6,0.2c-0.1-0.4-0.2-0.7-0.3-1.1c-1.2-5.1-2.3-10.2-3.5-15.3c-1.1-4.7-0.7-9.2,1.9-13.3c1.8-2.9,4.5-4.6,7.9-5
				c7.3-0.7,13.2,1.9,18.1,7.2c3,3.3,4.4,7.3,5.9,11.4c5,13.4,6.1,27.1,4.1,41.1c-0.7,5.3-3.4,9.5-7.8,12.5
				c-1.6,1.1-3.5,1.6-5.4,1.7c-7.7,0.4-15.5,0.8-23.2,1.2c-2.4,0.1-4.7,0.3-7.1,0.4c-0.8,0-1.2,0.3-1.6,0.9
				c-6.8,10.3-13.5,20.7-20.3,30.9c-3.4,5.2-9.9,6.4-14.7,2.8c-4.4-3.2-5.4-9.2-2.3-13.9c3.6-5.5,7.2-10.9,10.7-16.4
				c3.7-5.6,7.3-11.2,11.1-17c-13.9-1.2-27.6-2.3-41.6-3.5c1-1.1,0.3-3.1,2.2-3.4c0.5-1.7,1-3.3,1.5-5.1c0.2-0.7,0.6-1.2,1.4-1.3
				c2.3-0.3,4.5-0.6,6.8-0.9c0.9-2.7,1.7-5.6,2.7-8.4c1.2-3.3,2.9-6.4,5.3-9c0.8-0.9,1.7-1.3,3-1.3c12.7,0.5,25.4,0.9,38.2,1.2
				c0.9,0,1.4,0.3,1.4,1.2c0.1,0.9,0.3,1.7,0.5,2.6c-0.8,0.1-1.5,0.2-2.2,0.3c-0.1-0.1-0.2-0.1-0.2-0.2c0-1.4-0.8-1.6-2-1.6
				c-11.7-0.3-23.5-0.7-35.2-1.1c-0.8,0-1.4,0.2-1.9,0.8c-2.4,2.8-3.9,6-5,9.4C340.7,375,339.9,378.2,338.9,381.6z"/>
			<path d="M397.4,365.3c0-0.5,0-1-0.1-1.4c-0.4-5.9-0.8-11.8-1.1-17.7c-0.2-3.9,2.9-6.9,6.7-6.5c3,0.3,5.3,2.7,5.5,5.9
				c0.4,5.8,0.7,11.7,1.1,17.5c0.1,2.3,0.3,4.6,0.4,6.9c0.2,3.6-1.9,6.2-5.5,6.7c-10,1.4-20.1,2.8-30.2,4.1c-3.5,0.5-6.5-1.8-7-5.2
				c-0.5-3.3,1.8-6.3,5.3-6.8c7.7-1.1,15.5-2.1,23.2-3.2C396.3,365.4,396.8,365.3,397.4,365.3z"/>
		</g>
	</g>
</g>
</svg>
