<?xml version="1.0" encoding="utf-8"?>
<!-- Generator: Adobe Illustrator 24.1.0, SVG Export Plug-In . SVG Version: 6.00 Build 0)  -->
<svg version="1.1" id="Calque_1" xmlns="http://www.w3.org/2000/svg" xmlns:xlink="http://www.w3.org/1999/xlink" x="0px" y="0px"
	 viewBox="0 0 379.7 200.7" style="enable-background:new 0 0 379.7 200.7;" xml:space="preserve">
<style type="text/css">
	.st0{fill:#BBDEFB;}
</style>
<path class="st0" d="M221.4,64.7c4.8-30.3,44.2-64,88.3-58c43,5.9,66,47.6,69.5,79.6c3.9,35.9-16.7,62.5-22.6,70.2
	c-23.4,30.3-55.3,38.3-66.4,40.9c-46,10.8-95.7-6.4-96.1-19.7c-0.4-11.6,37.4-10.8,46.9-35.6C250.9,116.1,216.4,96.5,221.4,64.7z"/>
<path class="st0" d="M27.4,58.7c4.8-30.3,44.2-64,88.3-58c43,5.9,66,47.6,69.5,79.6c3.9,35.9-16.7,62.5-22.6,70.2
	c-23.4,30.3-55.3,38.3-66.4,40.9c-46,10.8-95.7-6.4-96.1-19.6c-0.4-11.6,37.4-10.8,46.9-35.6C56.9,110.1,22.4,90.5,27.4,58.7z"/>
</svg>
