<?xml version="1.0" encoding="utf-8"?>
<!-- Generator: Adobe Illustrator 24.1.0, SVG Export Plug-In . SVG Version: 6.00 Build 0)  -->
<svg version="1.1" id="Calque_1" xmlns="http://www.w3.org/2000/svg" xmlns:xlink="http://www.w3.org/1999/xlink" x="0px" y="0px"
	 viewBox="0 0 379.7 200.7" style="enable-background:new 0 0 379.7 200.7;" xml:space="preserve">
<style type="text/css">
	.st0{fill:#4169E1;}
</style>
<g>
	<path class="st0" d="M158.2,136.1c-4.8,30.3-44.2,64-88.3,58c-43-5.9-66-47.6-69.5-79.6C-3.5,78.6,17.1,52,23,44.3
		C46.5,13.9,78.5,6,89.5,3.4c46-10.8,95.7,6.4,96.1,19.7c0.4,11.7-37.4,10.8-46.9,35.5C128.7,84.6,163.3,104.3,158.2,136.1z"/>
	<path class="st0" d="M352.2,142.1c-4.8,30.3-44.2,64-88.3,58c-43-5.9-66-47.6-69.5-79.6C190.5,84.6,211.1,58,217,50.3
		C240.4,20,272.3,12,283.4,9.4c46-10.8,95.7,6.4,96.1,19.7c0.4,11.7-37.4,10.8-46.9,35.6C322.7,90.6,357.3,110.3,352.2,142.1z"/>
</g>
</svg>
